
<svg width="92" height="32" viewBox="0 0 92 32" fill="none" xmlns="http://www.w3.org/2000/svg">
<path d="M91.76 15.504C91.76 20.976 90.64 24.944 88.4 27.408C86.192 29.84 82.592 31.056 77.6 31.056C72.384 31.056 68.72 29.904 66.608 27.6C64.496 25.296 63.44 21.264 63.44 15.504C63.44 10.032 64.544 6.07999 66.752 3.64799C68.992 1.21599 72.608 -1.23978e-05 77.6 -1.23978e-05C82.816 -1.23978e-05 86.48 1.15199 88.592 3.45599C90.704 5.75999 91.76 9.77599 91.76 15.504ZM71.888 21.936C72.304 22.736 72.912 23.296 73.712 23.616C74.544 23.936 75.84 24.096 77.6 24.096C79.36 24.096 80.64 23.936 81.44 23.616C82.272 23.296 82.896 22.736 83.312 21.936C83.632 21.296 83.856 20.464 83.984 19.44C84.144 18.416 84.224 17.104 84.224 15.504C84.224 13.872 84.144 12.544 83.984 11.52C83.856 10.464 83.632 9.61599 83.312 8.97599C82.928 8.14399 82.32 7.56799 81.488 7.24799C80.688 6.89599 79.392 6.71999 77.6 6.71999C75.808 6.71999 74.496 6.89599 73.664 7.24799C72.864 7.56799 72.272 8.14399 71.888 8.97599C71.568 9.61599 71.328 10.464 71.168 11.52C71.04 12.544 70.976 13.872 70.976 15.504C70.976 17.104 71.04 18.416 71.168 19.44C71.328 20.464 71.568 21.296 71.888 21.936Z" fill="#5AD0FF" fill-opacity="0.86"/>
<path d="M7.824 30.576H-2.80887e-06L11.136 0.479987H18.864L29.712 30.576H21.936L20.352 25.536H9.408L7.824 30.576ZM14.832 7.87199C14.576 8.76799 14.288 9.72799 13.968 10.752C13.68 11.744 13.184 13.376 12.48 15.648L11.232 19.632H18.48L17.232 15.648C16.816 14.432 16.4 13.152 15.984 11.808C15.568 10.432 15.184 9.11999 14.832 7.87199Z" fill="#FF2D2D"/>
<path d="M30.888 20.88V30.576H23.448V0.479987H34.44C39.08 0.479987 42.376 1.26399 44.328 2.83199C46.28 4.39999 47.256 7.00799 47.256 10.656C47.256 13.12 46.728 15.136 45.672 16.704C44.648 18.24 43.08 19.36 40.968 20.064L48.312 30.576H39.384L33.144 20.88H30.888ZM39.72 10.656C39.72 9.37599 39.336 8.47999 38.568 7.96799C37.8 7.45599 36.424 7.19999 34.44 7.19999H30.888V14.88H34.44C36.424 14.88 37.8 14.576 38.568 13.968C39.336 13.328 39.72 12.224 39.72 10.656Z" fill="#FFB92D" fill-opacity="0.56"/>
<path d="M47.824 30.576H40L51.136 0.479987H58.864L69.712 30.576H61.936L60.352 25.536H49.408L47.824 30.576ZM54.832 7.87199C54.576 8.76799 54.288 9.72799 53.968 10.752C53.68 11.744 53.184 13.376 52.48 15.648L51.232 19.632H58.48L57.232 15.648C56.816 14.432 56.4 13.152 55.984 11.808C55.568 10.432 55.184 9.11999 54.832 7.87199Z" fill="#22D219" fill-opacity="0.43"/>
</svg>
